# xmcd
#
# Track frame offsets: 
#        150
#        12453
#        25838
#        39630
#        53796
#        68697
#        82032
#        95784
#        109231
#        122128
#        136686
#        150647
#        165321
#        178183
#        190319
#        202062
#        215433
#        229490
#        244147
#        257613
#        270757
#        285455
#        300208
#
# Disc length: 4168 seconds
#
# Revision: 0
# Processed by: cddbd v1.5.2PL0 Copyright (c) Steve Scherf et al.
# Submitted via: ExactAudioCopy v0.95b3
#
DISCID=3f104617
DTITLE=Jimmie Lunceford  - Volume 4 1936-1937 Complete Edition
DYEAR=1900
DGENRE=
TTITLE0=Organ Grinder's SWing
TTITLE1=On The Beach At Bali-Bali
TTITLE2=Me And The Moon
TTITLE3=Living From Day To Day
TTITLE4='Tain't Good
TTITLE5=Muddy Water
TTITLE6=I Can't Escape From You
TTITLE7=Harlem Shout
TTITLE8=(This Is) My Last Affair
TTITLE9=Running A Temperature
TTITLE10=Honey. Keep Your Mind On Me
TTITLE11=Count Me Out
TTITLE12=I'll See You In My Dreams
TTITLE13=He Ain't Got Rhythm
TTITLE14=Linger Awhile
TTITLE15=Honest And Truly
TTITLE16=Slumming In Park Avenue
TTITLE17=Coquette
TTITLE18=The Merry-Go-Round Broke Down
TTITLE19=The Merry-Go-Round Broke Down
TTITLE20=Ragging The Scale
TTITLE21=Hell's Bells
TTITLE22=For Dancers Only
EXTD=
EXTT0=
EXTT1=
EXTT2=
EXTT3=
EXTT4=
EXTT5=
EXTT6=
EXTT7=
EXTT8=
EXTT9=
EXTT10=
EXTT11=
EXTT12=
EXTT13=
EXTT14=
EXTT15=
EXTT16=
EXTT17=
EXTT18=
EXTT19=
EXTT20=
EXTT21=
EXTT22=
PLAYORDER=
